<svg xmlns="http://www.w3.org/2000/svg" xmlns:xlink="http://www.w3.org/1999/xlink" width="500" zoomAndPan="magnify" viewBox="0 0 375 374.999991" height="500" preserveAspectRatio="xMidYMid meet" version="1.0"><defs><g/><clipPath id="8ac14ff8b5"><path d="M 54.027344 65 L 336 65 L 336 328 L 54.027344 328 Z M 54.027344 65 " clip-rule="nonzero"/></clipPath><clipPath id="b770382bb5"><path d="M 228 50 L 324 50 L 324 128 L 228 128 Z M 228 50 " clip-rule="nonzero"/></clipPath><clipPath id="3dbb4d8289"><path d="M 230 46.042969 L 325.496094 55.878906 L 318.042969 128.246094 L 222.546875 118.410156 Z M 230 46.042969 " clip-rule="nonzero"/></clipPath><clipPath id="1d94d1d930"><path d="M 230 46.042969 L 325.496094 55.878906 L 318.042969 128.246094 L 222.546875 118.410156 Z M 230 46.042969 " clip-rule="nonzero"/></clipPath></defs><g clip-path="url(#8ac14ff8b5)"><path fill="#2f5972" d="M 332.351562 229.0625 L 326.980469 245.980469 C 312.746094 279.246094 288.75 302.828125 254.992188 316.734375 C 221.042969 330.578125 184.90625 330.832031 146.582031 317.503906 C 110.421875 303.042969 84.296875 279.804688 68.203125 247.792969 C 63.066406 237.457031 59.382812 226.65625 57.152344 215.390625 L 55.027344 198.324219 C 54.378906 186.78125 55.4375 175.144531 58.203125 163.425781 C 67.789062 127.71875 88.332031 101.019531 119.832031 83.324219 C 151.332031 65.632812 186.605469 60.980469 225.65625 69.371094 C 264.269531 79.574219 293.613281 99.699219 313.683594 129.738281 C 333.753906 159.777344 339.980469 192.886719 332.351562 229.0625 " fill-opacity="1" fill-rule="nonzero"/></g><g clip-path="url(#b770382bb5)"><g clip-path="url(#3dbb4d8289)"><g clip-path="url(#1d94d1d930)"><path fill="#1e1e1e" d="M 238.207031 118.683594 C 239.871094 118.523438 243.191406 118.171875 246.546875 117.964844 C 249.898438 117.761719 253.28125 117.703125 256.699219 117.796875 C 260.117188 117.890625 263.566406 118.125 266.152344 118.40625 C 268.734375 118.6875 270.441406 118.914062 272.09375 119.160156 C 273.746094 119.410156 275.34375 119.679688 276.894531 119.972656 C 278.441406 120.261719 279.933594 120.570312 281.757812 120.96875 C 283.578125 121.367188 285.761719 121.875 288.011719 122.433594 C 290.257812 122.988281 292.570312 123.597656 294.949219 124.265625 C 297.324219 124.933594 299.765625 125.660156 301.65625 126.1875 C 303.546875 126.71875 304.402344 126.886719 305.1875 127.003906 C 305.976562 127.121094 306.769531 127.183594 307.902344 127.066406 C 309.035156 126.949219 311.328125 125.726562 312.320312 121.707031 C 313.308594 117.6875 313.65625 113.652344 314.535156 108.824219 C 315.417969 103.996094 316.75 98.375 318.582031 91.992188 C 320.414062 85.605469 322.773438 78.472656 323.292969 71.90625 C 323.808594 65.339844 320.4375 64.625 319.3125 65.128906 C 318.1875 65.632812 317.660156 66.070312 317.199219 66.527344 C 316.738281 66.984375 316.261719 67.507812 315.53125 68.351562 C 314.800781 69.195312 313.5 70.726562 311.738281 72.8125 C 309.976562 74.898438 307.746094 77.542969 305.0625 80.765625 C 302.375 83.988281 299.195312 87.753906 297.34375 89.96875 C 295.492188 92.179688 295.320312 92.363281 295.265625 92.421875 C 295.210938 92.480469 295.332031 92.425781 295.71875 92.347656 C 296.105469 92.273438 296.765625 92.132812 296.976562 92.195312 C 297.191406 92.253906 297.128906 92.183594 296.808594 91.816406 C 296.492188 91.449219 296.019531 90.792969 295.453125 89.867188 C 294.890625 88.945312 294.25 87.765625 293.695312 86.652344 C 293.140625 85.539062 292.492188 84.046875 291.484375 81.59375 C 290.476562 79.140625 289.164062 75.746094 287.53125 71.433594 C 285.902344 67.121094 283.949219 61.894531 282.730469 58.636719 C 281.507812 55.375 281.230469 54.785156 280.878906 54.191406 C 280.53125 53.601562 280.058594 52.988281 279.339844 52.351562 C 278.625 51.71875 277.523438 51.15625 276.515625 50.941406 C 275.507812 50.726562 273.421875 51.066406 272.238281 51.851562 C 271.058594 52.640625 270.4375 53.382812 270.003906 54.070312 C 269.570312 54.757812 269.214844 55.449219 266.070312 63.148438 C 262.929688 70.84375 257.410156 85.515625 257.210938 86 C 257.011719 86.484375 256.832031 86.890625 256.707031 87.148438 C 256.578125 87.40625 256.539062 87.488281 256.679688 87.324219 C 256.824219 87.160156 261.484375 85.722656 261.371094 85.566406 C 261.253906 85.414062 259.535156 84.175781 256.882812 82 C 254.226562 79.828125 250.722656 76.78125 246.40625 72.886719 C 242.085938 68.992188 236.921875 64.25 236.3125 63.789062 C 235.703125 63.328125 235.019531 62.960938 234.042969 62.710938 C 233.0625 62.460938 231.773438 62.546875 230.578125 63.152344 C 229.386719 63.757812 227.832031 67.074219 228.160156 70.152344 C 228.484375 73.234375 229.253906 76.921875 230.429688 81.289062 C 231.605469 85.65625 233.199219 90.726562 234.796875 94.808594 C 236.394531 98.886719 241.414062 97.4375 240.609375 94.652344 C 240.609375 94.652344 239.785156 88.894531 238.796875 84.125 C 237.808594 79.359375 237.15625 75.429688 236.863281 72.382812 C 236.570312 69.332031 236.605469 67.214844 235.535156 69.027344 C 234.464844 70.839844 233.449219 71.195312 232.59375 71.171875 C 231.738281 71.144531 231.253906 70.972656 231.054688 70.867188 C 230.859375 70.761719 230.675781 70.609375 235.257812 75.4375 C 239.839844 80.269531 243.753906 84.214844 246.984375 87.300781 C 250.214844 90.382812 252.804688 92.625 254.96875 94.148438 C 257.128906 95.675781 259.707031 96.554688 262.503906 95.339844 C 265.304688 94.128906 265.753906 93.5 266.109375 92.894531 C 266.46875 92.289062 266.789062 91.660156 267.101562 90.976562 C 267.414062 90.292969 267.769531 89.445312 273.148438 74.71875 C 278.53125 59.988281 278.621094 59.738281 278.699219 59.542969 C 278.777344 59.351562 278.734375 59.390625 278.371094 59.726562 C 278.007812 60.066406 276.945312 60.628906 275.640625 60.710938 C 274.335938 60.792969 273.917969 60.644531 273.3125 60.273438 C 272.710938 59.902344 272.460938 59.640625 272.398438 59.542969 C 272.339844 59.449219 272.390625 59.507812 272.488281 59.671875 C 272.582031 59.832031 275.140625 65.511719 277.324219 70.324219 C 279.503906 75.136719 281.308594 79.066406 282.730469 82.125 C 284.148438 85.183594 285.199219 87.382812 285.914062 88.746094 C 286.628906 90.105469 287.464844 91.558594 288.273438 92.84375 C 289.082031 94.125 289.871094 95.226562 290.667969 96.164062 C 291.46875 97.101562 292.339844 97.898438 293.304688 98.472656 C 294.265625 99.046875 295.207031 99.351562 296.273438 99.234375 C 297.34375 99.121094 298.1875 98.832031 298.847656 98.445312 C 299.507812 98.054688 300.058594 97.605469 300.5625 97.109375 C 301.066406 96.613281 304.738281 92.621094 307.910156 89.1875 C 311.078125 85.75 313.769531 82.875 315.953125 80.546875 C 318.136719 78.214844 319.835938 76.449219 321.03125 75.230469 C 322.222656 74.015625 322.6875 73.546875 323.003906 73.25 C 323.320312 72.957031 323.480469 72.824219 323.316406 72.941406 C 323.148438 73.054688 321.957031 73.460938 319.558594 70.496094 C 317.164062 67.53125 313.878906 75.054688 311.140625 82.046875 C 308.40625 89.039062 306.292969 95.433594 304.851562 101.253906 C 303.40625 107.074219 302.605469 112.324219 302.425781 116.859375 C 302.246094 121.390625 304.089844 117.402344 305.5 116.792969 C 306.910156 116.179688 307.144531 116.179688 306.9375 116.164062 C 306.730469 116.148438 306.253906 116.082031 305.699219 115.988281 C 305.144531 115.898438 302.648438 115.257812 300.089844 114.640625 C 297.53125 114.023438 295.035156 113.464844 292.597656 112.964844 C 290.15625 112.464844 287.777344 112.03125 285.46875 111.664062 C 283.160156 111.296875 281.574219 111.066406 279.925781 110.867188 C 278.277344 110.667969 276.585938 110.492188 274.851562 110.34375 C 273.117188 110.191406 271.339844 110.0625 269.488281 109.957031 C 267.632812 109.847656 263.921875 109.792969 260.242188 109.886719 C 256.5625 109.980469 252.9375 110.246094 249.371094 110.667969 C 245.800781 111.089844 242.292969 111.683594 240.542969 112.109375 C 237.113281 112.851562 239.890625 118.371094 238.207031 118.683594 Z M 238.207031 118.683594 " fill-opacity="1" fill-rule="nonzero"/></g></g></g><g fill="#1e1e1e" fill-opacity="1"><g transform="translate(78.314121, 148.835316)"><g><path d="M 46.53125 -72.671875 L 66 -73.125 L 63.53125 -4.015625 L 60.046875 0.28125 L 43.96875 0.09375 L 33.734375 -13.078125 L 23.765625 0.1875 L 6.578125 0 L 3.375 -4.484375 L 3.375 -5.125 L 1.828125 -73.125 L 20.5625 -72.578125 L 23.484375 -24.21875 L 33.453125 -37.015625 L 43.328125 -24.125 Z M 46.53125 -72.671875 "/></g></g></g><g fill="#1e1e1e" fill-opacity="1"><g transform="translate(26.77571, 298.570629)"><g><path d="M 45.828125 -39.421875 L 50.015625 -30.46875 L 49.421875 -5.125 L 44.03125 -0.34375 L 4.953125 0 L 1.703125 -6.734375 L 3.328125 -23.296875 L 18 -23.21875 L 19.203125 -15.625 L 32.265625 -15.875 L 32.6875 -26.625 L 6.3125 -29.609375 L 2.46875 -33.96875 L 2.90625 -62.5625 L 6.234375 -66.5625 L 37.546875 -68.1875 L 48.5625 -65.03125 L 49.328125 -48.90625 L 46.171875 -46.171875 L 34.21875 -45.578125 L 32.09375 -52.484375 L 20.734375 -51.546875 L 19.796875 -41.734375 Z M 45.828125 -39.421875 "/></g></g></g><g fill="#1e1e1e" fill-opacity="1"><g transform="translate(144.263184, 146.876886)"><g><path d="M 27.640625 -56.625 L 42.734375 -55.421875 L 41.109375 -0.078125 L 26.15625 -0.78125 L 26.71875 -21.796875 L 16.921875 -22.140625 L 16.140625 -1.203125 L 1.40625 -0.28125 L 1.828125 -56.484375 L 18.1875 -56.484375 L 17.421875 -35.40625 L 27.078125 -35.046875 Z M 27.640625 -56.625 "/></g></g></g><g fill="#1e1e1e" fill-opacity="1"><g transform="translate(77.48417, 285.908115)"><g><path d="M 35.09375 -12.890625 L 35.875 -0.140625 L 1.421875 -0.140625 L 1.421875 -57.09375 L 34.734375 -56.03125 L 34.3125 -43 L 16.015625 -43.203125 L 16.015625 -36.09375 L 27.828125 -35.375 L 27.828125 -23 L 15.953125 -23.703125 L 15.875 -13.953125 Z M 35.09375 -12.890625 "/></g></g></g><g fill="#1e1e1e" fill-opacity="1"><g transform="translate(185.750896, 146.655896)"><g><path d="M 45.1875 -67.328125 L 49.140625 -63.03125 L 48.5625 -6.140625 L 45.4375 -0.171875 L 7.65625 0.078125 L 2.109375 -3.203125 L 1.6875 -62.859375 L 4.375 -67.078125 Z M 19.359375 -53.1875 L 19.859375 -14.3125 L 31.21875 -13.546875 L 31.390625 -52.171875 Z M 19.359375 -53.1875 "/></g></g></g><g fill="#1e1e1e" fill-opacity="1"><g transform="translate(229.981161, 174.063996)"><g><path d="M 8.015625 -51.328125 L 56.46875 -50.375 L 56.46875 -32.1875 L 7.171875 -32.65625 Z M 8.015625 -51.328125 "/></g></g></g><g fill="#1e1e1e" fill-opacity="1"><g transform="translate(111.878083, 297.885408)"><g><path d="M 48.484375 -56.59375 L 49.125 -0.140625 L 34.171875 -0.5 L 33.03125 -32.671875 L 25.125 -20.859375 L 17.71875 -32.25 L 16.59375 -0.71875 L 1.421875 -0.140625 L 2.203125 -57.09375 L 17.234375 -56.875 L 25.125 -44.0625 L 32.75 -56.8125 Z M 48.484375 -56.59375 "/></g></g></g><g fill="#1e1e1e" fill-opacity="1"><g transform="translate(161.378108, 293.011308)"><g><path d="M 2.359375 -71.59375 L 22.046875 -72.21875 L 19.59375 -1.8125 L 1.8125 0.09375 Z M 2.359375 -71.59375 "/></g></g></g><g fill="#1e1e1e" fill-opacity="1"><g transform="translate(52.018914, 213.864408)"><g><path d="M 47.53125 -57.40625 L 48.75 -0.15625 L 31.90625 0.15625 L 31.421875 -20 L 18.546875 -19.1875 L 17.25 -0.25 L 1.625 0.078125 L 4.125 -59.34375 L 7.28125 -63.15625 L 42.59375 -64.6875 Z M 31.328125 -32.3125 L 30.9375 -48.421875 L 20.25 -47.53125 L 19.4375 -33.109375 Z M 31.328125 -32.3125 "/></g></g></g><g fill="#1e1e1e" fill-opacity="1"><g transform="translate(100.453167, 212.129647)"><g><path d="M 1.25 -49.84375 L 36.359375 -49.84375 L 35.796875 -37.671875 L 25.859375 -37.234375 L 24.484375 -1.0625 L 11.4375 0.1875 L 11.75 -37.296875 L 1.3125 -37.796875 Z M 1.25 -49.84375 "/></g></g></g><g fill="#1e1e1e" fill-opacity="1"><g transform="translate(136.52856, 211.933895)"><g><path d="M 1.484375 -59.46875 L 43.375 -59.46875 L 42.703125 -44.9375 L 30.859375 -44.421875 L 29.21875 -1.265625 L 13.640625 0.21875 L 14.015625 -44.5 L 1.5625 -45.09375 Z M 1.484375 -59.46875 "/></g></g></g><g fill="#1e1e1e" fill-opacity="1"><g transform="translate(179.490696, 212.129647)"><g><path d="M 30.796875 -11.3125 L 31.484375 -0.125 L 1.25 -0.125 L 1.25 -50.09375 L 30.484375 -49.15625 L 30.109375 -37.734375 L 14.0625 -37.921875 L 14.0625 -31.671875 L 24.421875 -31.046875 L 24.421875 -20.171875 L 14 -20.796875 L 13.9375 -12.25 Z M 30.796875 -11.3125 "/></g></g></g><g fill="#1e1e1e" fill-opacity="1"><g transform="translate(211.403062, 211.933895)"><g><path d="M 29.96875 -58.578125 L 46.65625 -59.328125 L 44.5 -0.59375 L 31.15625 -0.078125 L 17.4375 -29.140625 L 16.390625 -1.484375 L 1.484375 0 L 1.9375 -59.25 L 18.03125 -59.25 L 29.8125 -34.359375 Z M 29.96875 -58.578125 "/></g></g></g><g fill="#1e1e1e" fill-opacity="1"><g transform="translate(257.990143, 204.167299)"><g><path d="M 31.984375 -47.46875 L 36.734375 -41.171875 L 35.671875 -6.375 L 30.796875 -0.625 L 1.25 0.0625 L 1.625 -49.96875 Z M 14.4375 -37.859375 L 14.9375 -10.125 L 23.609375 -12.0625 L 24.046875 -35.109375 Z M 14.4375 -37.859375 "/></g></g></g><g fill="#1e1e1e" fill-opacity="1"><g transform="translate(292.315533, 203.971531)"><g><path d="M 40.015625 -34.4375 L 43.671875 -26.609375 L 43.15625 -4.46875 L 38.453125 -0.296875 L 4.328125 0 L 1.484375 -5.890625 L 2.90625 -20.34375 L 15.71875 -20.265625 L 16.765625 -13.640625 L 28.171875 -13.859375 L 28.546875 -23.25 L 5.515625 -25.859375 L 2.15625 -29.65625 L 2.53125 -54.625 L 5.4375 -58.140625 L 32.796875 -59.546875 L 42.40625 -56.796875 L 43.078125 -42.703125 L 40.328125 -40.328125 L 29.890625 -39.796875 L 28.03125 -45.84375 L 18.109375 -45.015625 L 17.296875 -36.453125 Z M 40.015625 -34.4375 "/></g></g></g><g fill="#1e1e1e" fill-opacity="1"><g transform="translate(180.582326, 295.98095)"><g><path d="M 28.625 -55.953125 L 44.5625 -56.671875 L 42.5 -0.5625 L 29.75 -0.078125 L 16.65625 -27.828125 L 15.65625 -1.421875 L 1.421875 0 L 1.84375 -56.59375 L 17.234375 -56.59375 L 28.46875 -32.8125 Z M 28.625 -55.953125 "/></g></g></g><g fill="#1e1e1e" fill-opacity="1"><g transform="translate(222.52978, 278.911054)"><g><path d="M 41.78125 -50.46875 L 42.859375 -0.140625 L 28.046875 0.140625 L 27.625 -17.578125 L 16.296875 -16.875 L 15.15625 -0.21875 L 1.421875 0.078125 L 3.625 -52.1875 L 6.40625 -55.53125 L 37.4375 -56.875 Z M 27.546875 -28.40625 L 27.1875 -42.5625 L 17.796875 -41.78125 L 17.078125 -29.109375 Z M 27.546875 -28.40625 "/></g></g></g><g fill="#1e1e1e" fill-opacity="1"><g transform="translate(263.393601, 303.084174)"><g><path d="M 49.453125 -20.234375 L 44.734375 -19.6875 L 51.078125 -6.71875 L 49.546875 -3.625 L 35.5625 0 L 25.5 -18.421875 L 21.046875 -18.234375 L 20.234375 -1.8125 L 1.8125 -0.265625 L 1.8125 -72.765625 L 49.359375 -69.859375 L 52.890625 -66.328125 L 52.984375 -26.3125 Z M 33.84375 -35.484375 L 33.9375 -55.796875 L 21.953125 -56.984375 L 21.5 -34.5625 Z M 33.84375 -35.484375 "/></g></g></g><g fill="#1e1e1e" fill-opacity="1"><g transform="translate(315.677329, 289.430571)"><g><path d="M 42.3125 -36.40625 L 46.171875 -28.125 L 45.625 -4.734375 L 40.65625 -0.3125 L 4.5625 0 L 1.578125 -6.21875 L 3.078125 -21.515625 L 16.625 -21.4375 L 17.734375 -14.421875 L 29.78125 -14.65625 L 30.171875 -24.578125 L 5.828125 -27.34375 L 2.28125 -31.359375 L 2.671875 -57.765625 L 5.75 -61.46875 L 34.671875 -62.953125 L 44.828125 -60.046875 L 45.546875 -45.15625 L 42.625 -42.625 L 31.59375 -42.078125 L 29.625 -48.453125 L 19.140625 -47.59375 L 18.28125 -38.53125 Z M 42.3125 -36.40625 "/></g></g></g></svg>