<svg xmlns="http://www.w3.org/2000/svg" xmlns:xlink="http://www.w3.org/1999/xlink" width="1000" zoomAndPan="magnify" viewBox="0 0 750 374.999991" height="500" preserveAspectRatio="xMidYMid meet" version="1.0"><defs><g/><clipPath id="d66ad17cbb"><path d="M 213 54 L 336 54 L 336 153 L 213 153 Z M 213 54 " clip-rule="nonzero"/></clipPath><clipPath id="38c8f0033f"><path d="M 216.050781 48.042969 L 338.402344 60.644531 L 328.796875 153.902344 L 206.445312 141.296875 Z M 216.050781 48.042969 " clip-rule="nonzero"/></clipPath><clipPath id="3942822e82"><path d="M 216.050781 48.042969 L 338.402344 60.644531 L 328.796875 153.902344 L 206.445312 141.296875 Z M 216.050781 48.042969 " clip-rule="nonzero"/></clipPath></defs><g clip-path="url(#d66ad17cbb)"><g clip-path="url(#38c8f0033f)"><g clip-path="url(#3942822e82)"><path fill="#1e1e1e" d="M 226.574219 141.183594 C 228.707031 140.976562 232.964844 140.523438 237.265625 140.261719 C 241.566406 140 245.902344 139.925781 250.285156 140.046875 C 254.667969 140.164062 259.09375 140.464844 262.40625 140.828125 C 265.71875 141.1875 267.902344 141.476562 270.023438 141.792969 C 272.140625 142.113281 274.195312 142.460938 276.179688 142.832031 C 278.160156 143.207031 280.078125 143.601562 282.414062 144.113281 C 284.75 144.625 287.550781 145.273438 290.433594 145.988281 C 293.316406 146.703125 296.28125 147.484375 299.328125 148.339844 C 302.375 149.195312 305.503906 150.125 307.929688 150.804688 C 310.351562 151.484375 311.449219 151.699219 312.460938 151.851562 C 313.46875 152.003906 314.484375 152.082031 315.9375 151.929688 C 317.390625 151.78125 320.332031 150.210938 321.601562 145.058594 C 322.871094 139.90625 323.316406 134.730469 324.445312 128.539062 C 325.578125 122.347656 327.285156 115.144531 329.632812 106.957031 C 331.980469 98.769531 335.007812 89.621094 335.671875 81.203125 C 336.335938 72.78125 332.011719 71.867188 330.566406 72.511719 C 329.125 73.160156 328.449219 73.71875 327.859375 74.304688 C 327.269531 74.890625 326.65625 75.5625 325.71875 76.644531 C 324.78125 77.726562 323.113281 79.6875 320.855469 82.363281 C 318.597656 85.039062 315.738281 88.429688 312.296875 92.5625 C 308.851562 96.695312 304.773438 101.523438 302.398438 104.359375 C 300.027344 107.195312 299.804688 107.433594 299.734375 107.507812 C 299.664062 107.582031 299.824219 107.511719 300.316406 107.414062 C 300.8125 107.316406 301.65625 107.140625 301.929688 107.214844 C 302.203125 107.292969 302.125 107.203125 301.714844 106.730469 C 301.308594 106.261719 300.703125 105.417969 299.976562 104.234375 C 299.253906 103.050781 298.433594 101.539062 297.722656 100.113281 C 297.007812 98.683594 296.179688 96.769531 294.886719 93.625 C 293.597656 90.476562 291.914062 86.128906 289.820312 80.597656 C 287.726562 75.070312 285.226562 68.367188 283.660156 64.1875 C 282.097656 60.007812 281.738281 59.246094 281.289062 58.488281 C 280.839844 57.730469 280.234375 56.945312 279.316406 56.132812 C 278.398438 55.316406 276.984375 54.59375 275.695312 54.320312 C 274.402344 54.046875 271.726562 54.480469 270.210938 55.492188 C 268.695312 56.5 267.898438 57.453125 267.34375 58.335938 C 266.785156 59.214844 266.332031 60.101562 262.304688 69.972656 C 258.273438 79.84375 251.195312 98.652344 250.941406 99.273438 C 250.6875 99.894531 250.453125 100.417969 250.292969 100.746094 C 250.132812 101.078125 250.078125 101.179688 250.261719 100.972656 C 250.445312 100.761719 256.421875 98.917969 256.273438 98.71875 C 256.128906 98.523438 253.921875 96.933594 250.519531 94.148438 C 247.117188 91.359375 242.621094 87.453125 237.085938 82.457031 C 231.546875 77.464844 224.925781 71.386719 224.144531 70.796875 C 223.363281 70.203125 222.484375 69.734375 221.234375 69.414062 C 219.980469 69.09375 218.324219 69.203125 216.792969 69.976562 C 215.265625 70.753906 213.273438 75.007812 213.691406 78.957031 C 214.109375 82.902344 215.09375 87.632812 216.601562 93.234375 C 218.109375 98.832031 220.15625 105.335938 222.203125 110.566406 C 224.25 115.796875 230.6875 113.941406 229.65625 110.371094 C 229.65625 110.371094 228.597656 102.984375 227.332031 96.871094 C 226.0625 90.757812 225.226562 85.722656 224.851562 81.8125 C 224.476562 77.902344 224.519531 75.191406 223.148438 77.511719 C 221.777344 79.835938 220.472656 80.292969 219.375 80.257812 C 218.277344 80.226562 217.660156 80.007812 217.40625 79.871094 C 217.148438 79.734375 216.917969 79.539062 222.792969 85.734375 C 228.667969 91.925781 233.683594 96.988281 237.828125 100.941406 C 241.972656 104.890625 245.292969 107.769531 248.066406 109.722656 C 250.835938 111.679688 254.140625 112.808594 257.730469 111.253906 C 261.316406 109.695312 261.894531 108.890625 262.351562 108.117188 C 262.8125 107.339844 263.222656 106.53125 263.625 105.65625 C 264.023438 104.78125 264.480469 103.695312 271.378906 84.808594 C 278.277344 65.921875 278.394531 65.597656 278.496094 65.351562 C 278.59375 65.105469 278.539062 65.152344 278.074219 65.589844 C 277.609375 66.023438 276.242188 66.742188 274.570312 66.847656 C 272.898438 66.953125 272.363281 66.761719 271.585938 66.289062 C 270.8125 65.8125 270.492188 65.472656 270.417969 65.351562 C 270.339844 65.230469 270.40625 65.308594 270.53125 65.515625 C 270.652344 65.722656 273.933594 73.003906 276.730469 79.171875 C 279.527344 85.34375 281.839844 90.382812 283.660156 94.304688 C 285.480469 98.226562 286.832031 101.046875 287.746094 102.792969 C 288.664062 104.539062 289.734375 106.402344 290.769531 108.046875 C 291.808594 109.695312 292.816406 111.105469 293.84375 112.308594 C 294.867188 113.511719 295.988281 114.527344 297.222656 115.265625 C 298.457031 116.003906 299.660156 116.394531 301.03125 116.246094 C 302.398438 116.097656 303.480469 115.730469 304.328125 115.230469 C 305.175781 114.730469 305.882812 114.15625 306.527344 113.519531 C 307.171875 112.882812 311.882812 107.765625 315.945312 103.359375 C 320.011719 98.953125 323.460938 95.269531 326.261719 92.28125 C 329.0625 89.292969 331.238281 87.027344 332.769531 85.464844 C 334.300781 83.90625 334.894531 83.304688 335.300781 82.925781 C 335.707031 82.546875 335.914062 82.382812 335.703125 82.527344 C 335.488281 82.675781 333.957031 83.195312 330.886719 79.394531 C 327.816406 75.59375 323.601562 85.242188 320.09375 94.207031 C 316.582031 103.171875 313.875 111.371094 312.027344 118.832031 C 310.175781 126.296875 309.148438 133.03125 308.917969 138.839844 C 308.6875 144.652344 311.046875 139.539062 312.859375 138.757812 C 314.667969 137.972656 314.964844 137.96875 314.703125 137.949219 C 314.4375 137.929688 313.824219 137.84375 313.113281 137.726562 C 312.402344 137.613281 309.199219 136.789062 305.921875 135.996094 C 302.640625 135.207031 299.4375 134.488281 296.3125 133.847656 C 293.1875 133.207031 290.136719 132.648438 287.175781 132.179688 C 284.214844 131.710938 282.179688 131.417969 280.066406 131.160156 C 277.953125 130.902344 275.785156 130.679688 273.5625 130.488281 C 271.335938 130.296875 269.058594 130.128906 266.683594 129.992188 C 264.304688 129.851562 259.542969 129.785156 254.828125 129.902344 C 250.109375 130.023438 245.464844 130.363281 240.886719 130.902344 C 236.3125 131.445312 231.8125 132.207031 229.570312 132.753906 C 225.171875 133.703125 228.734375 140.78125 226.574219 141.183594 Z M 226.574219 141.183594 " fill-opacity="1" fill-rule="nonzero"/></g></g></g><g fill="#1e1e1e" fill-opacity="1"><g transform="translate(21.550218, 179.84668)"><g><path d="M 59.671875 -93.1875 L 84.625 -93.78125 L 81.46875 -5.15625 L 77.015625 0.359375 L 56.375 0.125 L 43.25 -16.765625 L 30.484375 0.234375 L 8.4375 0 L 4.34375 -5.75 L 4.34375 -6.5625 L 2.34375 -93.78125 L 26.375 -93.078125 L 30.125 -31.0625 L 42.90625 -47.46875 L 55.5625 -30.953125 Z M 59.671875 -93.1875 "/></g></g></g><g fill="#1e1e1e" fill-opacity="1"><g transform="translate(162.726385, 277.280719)"><g><path d="M 58.765625 -50.5625 L 64.125 -39.0625 L 63.359375 -6.5625 L 56.46875 -0.4375 L 6.34375 0 L 2.1875 -8.640625 L 4.265625 -29.875 L 23.09375 -29.765625 L 24.625 -20.03125 L 41.375 -20.359375 L 41.921875 -34.140625 L 8.09375 -37.96875 L 3.171875 -43.5625 L 3.71875 -80.21875 L 7.984375 -85.359375 L 48.15625 -87.4375 L 62.265625 -83.390625 L 63.25 -62.703125 L 59.203125 -59.203125 L 43.890625 -58.4375 L 41.15625 -67.296875 L 26.59375 -66.09375 L 25.390625 -53.515625 Z M 58.765625 -50.5625 "/></g></g></g><g fill="#1e1e1e" fill-opacity="1"><g transform="translate(106.113465, 177.335485)"><g><path d="M 35.453125 -72.609375 L 54.796875 -71.078125 L 52.71875 -0.09375 L 33.546875 -1 L 34.265625 -27.9375 L 21.703125 -28.390625 L 20.703125 -1.53125 L 1.8125 -0.359375 L 2.34375 -72.421875 L 23.328125 -72.421875 L 22.328125 -45.390625 L 34.71875 -44.9375 Z M 35.453125 -72.609375 "/></g></g></g><g fill="#1e1e1e" fill-opacity="1"><g transform="translate(227.747339, 261.044205)"><g><path d="M 45 -16.515625 L 46 -0.1875 L 1.828125 -0.1875 L 1.828125 -73.1875 L 44.53125 -71.828125 L 43.984375 -55.125 L 20.53125 -55.390625 L 20.53125 -46.265625 L 35.6875 -45.359375 L 35.6875 -29.484375 L 20.4375 -30.390625 L 20.359375 -17.890625 Z M 45 -16.515625 "/></g></g></g><g fill="#1e1e1e" fill-opacity="1"><g transform="translate(159.311101, 177.052117)"><g><path d="M 57.953125 -86.328125 L 63.015625 -80.828125 L 62.265625 -7.875 L 58.265625 -0.21875 L 9.8125 0.109375 L 2.703125 -4.09375 L 2.15625 -80.609375 L 5.609375 -86 Z M 24.8125 -68.203125 L 25.46875 -18.34375 L 40.03125 -17.375 L 40.25 -66.90625 Z M 24.8125 -68.203125 "/></g></g></g><g fill="#1e1e1e" fill-opacity="1"><g transform="translate(216.025394, 212.196154)"><g><path d="M 10.28125 -65.8125 L 72.40625 -64.578125 L 72.40625 -41.265625 L 9.203125 -41.875 Z M 10.28125 -65.8125 "/></g></g></g><g fill="#1e1e1e" fill-opacity="1"><g transform="translate(271.848946, 276.402094)"><g><path d="M 62.15625 -72.5625 L 62.96875 -0.1875 L 43.8125 -0.640625 L 42.34375 -41.890625 L 32.21875 -26.734375 L 22.71875 -41.34375 L 21.265625 -0.90625 L 1.828125 -0.1875 L 2.828125 -73.1875 L 22.09375 -72.921875 L 32.21875 -56.5 L 41.984375 -72.828125 Z M 62.15625 -72.5625 "/></g></g></g><g fill="#1e1e1e" fill-opacity="1"><g transform="translate(335.320417, 270.152253)"><g><path d="M 3.03125 -91.796875 L 28.265625 -92.609375 L 25.125 -2.328125 L 2.328125 0.109375 Z M 3.03125 -91.796875 "/></g></g></g><g fill="#1e1e1e" fill-opacity="1"><g transform="translate(337.779508, 175.192657)"><g><path d="M 60.953125 -73.609375 L 62.5 -0.203125 L 40.90625 0.203125 L 40.28125 -25.640625 L 23.78125 -24.609375 L 22.109375 -0.3125 L 2.078125 0.109375 L 5.296875 -76.109375 L 9.34375 -80.984375 L 54.609375 -82.953125 Z M 40.1875 -41.421875 L 39.65625 -62.09375 L 25.953125 -60.953125 L 24.921875 -42.46875 Z M 40.1875 -41.421875 "/></g></g></g><g fill="#1e1e1e" fill-opacity="1"><g transform="translate(399.884397, 172.968261)"><g><path d="M 1.609375 -63.921875 L 46.609375 -63.921875 L 45.890625 -48.296875 L 33.15625 -47.734375 L 31.390625 -1.359375 L 14.65625 0.234375 L 15.0625 -47.8125 L 1.6875 -48.453125 Z M 1.609375 -63.921875 "/></g></g></g><g fill="#1e1e1e" fill-opacity="1"><g transform="translate(446.142076, 172.717253)"><g><path d="M 1.90625 -76.265625 L 55.625 -76.265625 L 54.765625 -57.640625 L 39.5625 -56.96875 L 37.46875 -1.625 L 17.484375 0.28125 L 17.96875 -57.0625 L 2 -57.828125 Z M 1.90625 -76.265625 "/></g></g></g><g fill="#1e1e1e" fill-opacity="1"><g transform="translate(501.230304, 172.968261)"><g><path d="M 39.484375 -14.5 L 40.375 -0.15625 L 1.609375 -0.15625 L 1.609375 -64.234375 L 39.078125 -63.03125 L 38.609375 -48.375 L 18.015625 -48.609375 L 18.015625 -40.609375 L 31.3125 -39.8125 L 31.3125 -25.875 L 17.9375 -26.671875 L 17.859375 -15.703125 Z M 39.484375 -14.5 "/></g></g></g><g fill="#1e1e1e" fill-opacity="1"><g transform="translate(542.149965, 172.717253)"><g><path d="M 38.421875 -75.125 L 59.828125 -76.078125 L 57.0625 -0.765625 L 39.953125 -0.09375 L 22.359375 -37.375 L 21.03125 -1.90625 L 1.90625 0 L 2.484375 -75.984375 L 23.125 -75.984375 L 38.234375 -44.0625 Z M 38.421875 -75.125 "/></g></g></g><g fill="#1e1e1e" fill-opacity="1"><g transform="translate(601.886273, 162.758542)"><g><path d="M 41.015625 -60.875 L 47.09375 -52.78125 L 45.734375 -8.171875 L 39.484375 -0.796875 L 1.609375 0.078125 L 2.078125 -64.078125 Z M 18.5 -48.53125 L 19.140625 -12.96875 L 30.28125 -15.453125 L 30.84375 -45.015625 Z M 18.5 -48.53125 "/></g></g></g><g fill="#1e1e1e" fill-opacity="1"><g transform="translate(645.900015, 162.507529)"><g><path d="M 51.328125 -44.15625 L 56.015625 -34.125 L 55.34375 -5.734375 L 49.3125 -0.375 L 5.546875 0 L 1.90625 -7.546875 L 3.734375 -26.09375 L 20.171875 -26 L 21.5 -17.484375 L 36.125 -17.78125 L 36.609375 -29.828125 L 7.078125 -33.171875 L 2.765625 -38.046875 L 3.25 -70.0625 L 6.984375 -74.546875 L 42.046875 -76.359375 L 54.390625 -72.828125 L 55.25 -54.765625 L 51.703125 -51.703125 L 38.328125 -51.03125 L 35.9375 -58.78125 L 23.21875 -57.734375 L 22.171875 -46.734375 Z M 51.328125 -44.15625 "/></g></g></g><g fill="#1e1e1e" fill-opacity="1"><g transform="translate(359.945025, 273.960114)"><g><path d="M 36.6875 -71.734375 L 57.125 -72.640625 L 54.484375 -0.734375 L 38.15625 -0.09375 L 21.359375 -35.6875 L 20.078125 -1.828125 L 1.828125 0 L 2.375 -72.5625 L 22.09375 -72.5625 L 36.5 -42.078125 Z M 36.6875 -71.734375 "/></g></g></g><g fill="#1e1e1e" fill-opacity="1"><g transform="translate(413.73219, 252.072213)"><g><path d="M 53.578125 -64.703125 L 54.9375 -0.1875 L 35.953125 0.1875 L 35.40625 -22.546875 L 20.90625 -21.625 L 19.4375 -0.28125 L 1.828125 0.09375 L 4.65625 -66.890625 L 8.21875 -71.1875 L 48 -72.921875 Z M 35.3125 -36.421875 L 34.859375 -54.578125 L 22.8125 -53.578125 L 21.90625 -37.328125 Z M 35.3125 -36.421875 "/></g></g></g><g fill="#1e1e1e" fill-opacity="1"><g transform="translate(466.12985, 283.068173)"><g><path d="M 63.40625 -25.9375 L 57.359375 -25.25 L 65.5 -8.609375 L 63.53125 -4.65625 L 45.609375 0 L 32.6875 -23.625 L 26.984375 -23.390625 L 25.9375 -2.328125 L 2.328125 -0.34375 L 2.328125 -93.3125 L 63.296875 -89.578125 L 67.828125 -85.046875 L 67.9375 -33.734375 Z M 43.390625 -45.484375 L 43.515625 -71.546875 L 28.15625 -73.0625 L 27.578125 -44.328125 Z M 43.390625 -45.484375 "/></g></g></g><g fill="#1e1e1e" fill-opacity="1"><g transform="translate(533.17075, 265.560869)"><g><path d="M 54.265625 -46.6875 L 59.21875 -36.078125 L 58.5 -6.0625 L 52.140625 -0.40625 L 5.859375 0 L 2.015625 -7.984375 L 3.9375 -27.578125 L 21.328125 -27.484375 L 22.734375 -18.484375 L 38.203125 -18.796875 L 38.703125 -31.53125 L 7.484375 -35.0625 L 2.9375 -40.21875 L 3.4375 -74.0625 L 7.375 -78.8125 L 44.453125 -80.734375 L 57.5 -77 L 58.40625 -57.90625 L 54.671875 -54.671875 L 40.515625 -53.953125 L 38 -62.140625 L 24.546875 -61.03125 L 23.4375 -49.40625 Z M 54.265625 -46.6875 "/></g></g></g></svg>